<svg width="512" height="512" viewBox="0 0 512 512" fill="none" xmlns="http://www.w3.org/2000/svg">
<rect width="512" height="512" rx="70" fill="white"/>
<path d="M262.385 95.8615C300.235 95.8615 329.585 104.75 350.435 122.528C371.606 140.306 382.191 164.225 382.191 194.286C382.191 218.205 376.578 237.922 365.351 253.437C354.445 268.629 338.727 279.781 318.198 286.892L400.956 415.861H309.537L241.695 299.013H192.137V415.861H110.823V95.8615H262.385ZM250.837 239.861C266.875 239.861 278.904 236.629 286.923 230.164C294.942 223.7 298.952 213.356 298.952 199.134C298.952 172.306 282.914 158.892 250.837 158.892H192.137V239.861H250.837Z" fill="black"/>
<rect x="110.823" y="95.8615" width="29.368" height="320.277" fill="#EBB81A"/>
<path d="M256.277 159.03C256.538 159.027 256.803 159.026 257.073 159.028C269.761 158.962 293.477 157.423 304.762 162.632C319.169 169.281 326.095 180.364 326.372 198.926C326.649 217.489 321.662 224.97 309.749 233.558C300.218 240.429 270.13 240.67 256.277 239.931C266.251 237.991 298.39 239.377 298.944 198.926C299.379 167.152 271.713 159.133 257.073 159.028C256.802 159.029 256.537 159.03 256.277 159.03Z" fill="#EBB81A"/>
<path d="M241.593 298.944H269.388L337.454 416.139H309.195L241.593 298.944Z" fill="#EBB81A"/>
</svg>
